<?xml version="1.0" encoding="utf-8"?>
<!-- Generator: Adobe Illustrator 25.2.0, SVG Export Plug-In . SVG Version: 6.00 Build 0)  -->
<svg version="1.1" id="Warstwa_1" xmlns="http://www.w3.org/2000/svg" xmlns:xlink="http://www.w3.org/1999/xlink" x="0px" y="0px"
	 viewBox="0 0 220 351" style="enable-background:new 0 0 220 351;" xml:space="preserve">
<path d="M144,404"/>
<path d="M208.8,196.9c-0.6-1.8-1.3-3-1.9-4.7c-4.3-7.2-19.5-37.8-10.9-98.3c0,0-40,19-41.9,71c0,0-70.1-39-36.1-163c0,0-26,16-41,41
	c0,0-22,33-9,102c0,0,11,43-8,66c0,0,13-73-33-86c0,0,17,24-3,65c0,0-15,23-21,61c0,0-18,68,83,97c0,0-35-22-25-55c0,0,16-34,10-60
	c0,0,23,11,18,31c0,0,38-17,25-74c0,0,24,10,20,51c0,0-12,26,4,48c0,0-2-26,8-42c0,0,2,21,11,37c0,0,25,29-6,58
	c0,0,93.1-19.7,58-144.4C208.9,197.4,208.9,197.2,208.8,196.9z"/>
</svg>
