<?xml version="1.0" encoding="utf-8"?>
<!-- Generator: Adobe Illustrator 25.2.0, SVG Export Plug-In . SVG Version: 6.00 Build 0)  -->
<svg version="1.1" xmlns="http://www.w3.org/2000/svg" xmlns:xlink="http://www.w3.org/1999/xlink" x="0px" y="0px"
	 viewBox="0 0 1911 1274" style="enable-background:new 0 0 1911 1274;" xml:space="preserve">
<style type="text/css">
	.st0{fill:url(#SVGID_1_);}
	.st1{opacity:0.5;}
	.st2{clip-path:url(#SVGID_3_);}
	.st3{fill-rule:evenodd;clip-rule:evenodd;fill:url(#SVGID_4_);}
	.st4{fill-rule:evenodd;clip-rule:evenodd;fill:url(#SVGID_5_);}
	.st5{fill-rule:evenodd;clip-rule:evenodd;fill:url(#SVGID_6_);}
	.st6{fill-rule:evenodd;clip-rule:evenodd;fill:url(#SVGID_7_);}
	.st7{fill-rule:evenodd;clip-rule:evenodd;fill:url(#SVGID_8_);}
	.st8{fill-rule:evenodd;clip-rule:evenodd;fill:url(#SVGID_9_);}
	.st9{fill-rule:evenodd;clip-rule:evenodd;fill:url(#SVGID_10_);}
	.st10{fill-rule:evenodd;clip-rule:evenodd;fill:url(#SVGID_11_);}
	.st11{fill-rule:evenodd;clip-rule:evenodd;fill:url(#SVGID_12_);}
	.st12{fill-rule:evenodd;clip-rule:evenodd;fill:url(#SVGID_13_);}
	.st13{fill-rule:evenodd;clip-rule:evenodd;fill:url(#SVGID_14_);}
	.st14{fill-rule:evenodd;clip-rule:evenodd;fill:url(#SVGID_15_);}
	.st15{fill-rule:evenodd;clip-rule:evenodd;fill:url(#SVGID_16_);}
	.st16{fill-rule:evenodd;clip-rule:evenodd;fill:url(#SVGID_17_);}
	.st17{fill-rule:evenodd;clip-rule:evenodd;fill:url(#SVGID_18_);}
	.st18{fill-rule:evenodd;clip-rule:evenodd;fill:url(#SVGID_19_);}
	.st19{fill-rule:evenodd;clip-rule:evenodd;fill:url(#SVGID_20_);}
	.st20{fill-rule:evenodd;clip-rule:evenodd;fill:url(#SVGID_21_);}
	.st21{fill-rule:evenodd;clip-rule:evenodd;fill:url(#SVGID_22_);}
	.st22{fill-rule:evenodd;clip-rule:evenodd;fill:url(#SVGID_23_);}
	.st23{fill-rule:evenodd;clip-rule:evenodd;fill:url(#SVGID_24_);}
	.st24{fill-rule:evenodd;clip-rule:evenodd;fill:url(#SVGID_25_);}
	.st25{fill-rule:evenodd;clip-rule:evenodd;fill:url(#SVGID_26_);}
	.st26{fill-rule:evenodd;clip-rule:evenodd;fill:url(#SVGID_27_);}
	.st27{filter:url(#Adobe_OpacityMaskFilter);}
	.st28{fill:url(#SVGID_29_);}
	.st29{mask:url(#SVGID_28_);fill:url(#SVGID_30_);}
	.st30{filter:url(#Adobe_OpacityMaskFilter_1_);}
	.st31{fill:url(#SVGID_32_);}
	.st32{mask:url(#SVGID_31_);fill:url(#SVGID_33_);}
</style>
<g id="BACKGROUND">
	<linearGradient id="SVGID_1_" gradientUnits="userSpaceOnUse" x1="1748.8788" y1="-156.4107" x2="75.9272" y2="1516.5409">
		<stop  offset="0" style="stop-color:#E2E5E6"/>
		<stop  offset="0.4938" style="stop-color:#F6F6F6"/>
		<stop  offset="1" style="stop-color:#E2E5E6"/>
	</linearGradient>
	<rect y="0" class="st0" width="1911" height="1274"/>
</g>
<g id="OBJECTS">
	<g class="st1">
		<defs>
			<rect id="SVGID_2_" y="0" class="st1" width="1911" height="1274"/>
		</defs>
		<clipPath id="SVGID_3_">
			<use xlink:href="#SVGID_2_"  style="overflow:visible;"/>
		</clipPath>
		<g class="st2">
			<g>
				<linearGradient id="SVGID_4_" gradientUnits="userSpaceOnUse" x1="688.1843" y1="1337.408" x2="-154.7578" y2="494.4658">
					<stop  offset="0" style="stop-color:#F1F1F1"/>
					<stop  offset="0.4938" style="stop-color:#FFFFFF"/>
					<stop  offset="1" style="stop-color:#F1F1F1"/>
				</linearGradient>
				<polygon class="st3" points="775.8,1274 -75.1,425.8 -374.5,425.8 476.4,1274 				"/>
				<linearGradient id="SVGID_5_" gradientUnits="userSpaceOnUse" x1="-317.9276" y1="406.1528" x2="543.3934" y2="1267.4739">
					<stop  offset="0" style="stop-color:#EEEEEE"/>
					<stop  offset="1" style="stop-color:#D7D7D7"/>
				</linearGradient>
				<polygon class="st4" points="626.1,1274 -224.8,425.8 -374.5,425.8 476.4,1274 				"/>
			</g>
			<g>
				<linearGradient id="SVGID_6_" gradientUnits="userSpaceOnUse" x1="2285.8738" y1="783.211" x2="1442.9318" y2="-59.7312">
					<stop  offset="0" style="stop-color:#F1F1F1"/>
					<stop  offset="0.4938" style="stop-color:#FFFFFF"/>
					<stop  offset="1" style="stop-color:#F1F1F1"/>
				</linearGradient>
				<polygon class="st5" points="2373.5,719.8 1522.6,-128.4 1223.2,-128.4 2074.1,719.8 				"/>
				<linearGradient id="SVGID_7_" gradientUnits="userSpaceOnUse" x1="2017.7079" y1="589.9018" x2="1304.8188" y2="-122.9872">
					<stop  offset="0" style="stop-color:#EEEEEE"/>
					<stop  offset="1" style="stop-color:#D7D7D7"/>
				</linearGradient>
				<polygon class="st6" points="2223.8,719.8 1372.9,-128.4 1223.2,-128.4 2074.1,719.8 				"/>
			</g>
			<g>
				<linearGradient id="SVGID_8_" gradientUnits="userSpaceOnUse" x1="1290.1604" y1="1369.2491" x2="24.0936" y2="103.1823">
					<stop  offset="0" style="stop-color:#F1F1F1"/>
					<stop  offset="0.4938" style="stop-color:#FFFFFF"/>
					<stop  offset="1" style="stop-color:#F1F1F1"/>
				</linearGradient>
				<polygon class="st7" points="1421.8,1274 143.7,0 -306,0 972.1,1274 				"/>
				<linearGradient id="SVGID_9_" gradientUnits="userSpaceOnUse" x1="1126.5093" y1="1318.0303" x2="-20.4637" y2="171.0573">
					<stop  offset="0" style="stop-color:#EEEEEE"/>
					<stop  offset="1" style="stop-color:#D7D7D7"/>
				</linearGradient>
				<polygon class="st8" points="1196.9,1274 -81.1,0 -306,0 972,1274 				"/>
			</g>
			<g>
				<linearGradient id="SVGID_10_" gradientUnits="userSpaceOnUse" x1="2291.9033" y1="1521.385" x2="668.6664" y2="-101.852">
					<stop  offset="0" style="stop-color:#F1F1F1"/>
					<stop  offset="0.4938" style="stop-color:#FFFFFF"/>
					<stop  offset="1" style="stop-color:#F1F1F1"/>
				</linearGradient>
				<polygon class="st9" points="2460.6,1399.2 822.1,-234.1 245.5,-234.1 1884.1,1399.2 				"/>
				<linearGradient id="SVGID_11_" gradientUnits="userSpaceOnUse" x1="354.4535" y1="-271.9145" x2="2013.0822" y2="1386.7142">
					<stop  offset="0" style="stop-color:#EEEEEE"/>
					<stop  offset="1" style="stop-color:#D7D7D7"/>
				</linearGradient>
				<polygon class="st10" points="2172.3,1399.2 533.8,-234.1 245.5,-234.1 1884,1399.2 				"/>
			</g>
		</g>
	</g>
	<g>
		<g>
			<linearGradient id="SVGID_12_" gradientUnits="userSpaceOnUse" x1="1853.1454" y1="256.5031" x2="1791.4075" y2="318.2409">
				<stop  offset="0" style="stop-color:#F1F1F1"/>
				<stop  offset="0.4938" style="stop-color:#FFFFFF"/>
				<stop  offset="1" style="stop-color:#F1F1F1"/>
			</linearGradient>
			<path class="st11" d="M1704.2,168L1704.2,168c17.1-17,45.1-17,62.1,0L1911,312.2v123.9L1704.2,230
				C1687.1,213,1687.1,185.1,1704.2,168z"/>
			<linearGradient id="SVGID_13_" gradientUnits="userSpaceOnUse" x1="1669.3016" y1="648.4958" x2="1628.2172" y2="689.5802">
				<stop  offset="0" style="stop-color:#EEEEEE"/>
				<stop  offset="1" style="stop-color:#D7D7D7"/>
			</linearGradient>
			<path class="st12" d="M1365.1,385.4L1365.1,385.4c12.3-12.3,32.4-12.3,44.7,0L1911,885v89.1L1365.1,430
				C1352.8,417.7,1352.8,397.7,1365.1,385.4z"/>
			<linearGradient id="SVGID_14_" gradientUnits="userSpaceOnUse" x1="1795.8497" y1="849.7838" x2="1737.8843" y2="907.7492">
				<stop  offset="0" style="stop-color:#F1F1F1"/>
				<stop  offset="0.4938" style="stop-color:#FFFFFF"/>
				<stop  offset="1" style="stop-color:#F1F1F1"/>
			</linearGradient>
			<path class="st13" d="M1589.6,704.2L1589.6,704.2c17.1-17,45.1-17,62.1,0L1911,962.6v123.9l-321.4-320.4
				C1572.5,749.1,1572.5,721.2,1589.6,704.2z"/>
			<linearGradient id="SVGID_15_" gradientUnits="userSpaceOnUse" x1="1602.6686" y1="877.4249" x2="1501.632" y2="978.4615">
				<stop  offset="0" style="stop-color:#EEEEEE"/>
				<stop  offset="1" style="stop-color:#D7D7D7"/>
			</linearGradient>
			<path class="st14" d="M1199,576.3L1199,576.3c27.8-27.7,73.3-27.7,101.2,0l610.8,608.9v88.8h-113.2L1199,677.1
				C1171.2,649.4,1171.2,604,1199,576.3z"/>
			<linearGradient id="SVGID_16_" gradientUnits="userSpaceOnUse" x1="1836.0641" y1="1066.6558" x2="1794.9796" y2="1107.7402">
				<stop  offset="0" style="stop-color:#F1F1F1"/>
				<stop  offset="0.4938" style="stop-color:#FFFFFF"/>
				<stop  offset="1" style="stop-color:#F1F1F1"/>
			</linearGradient>
			<path class="st15" d="M1694.9,969.8L1694.9,969.8c12.3-12.3,32.4-12.3,44.7,0l171.3,170.8v89.1l-216-215.3
				C1682.6,1002.1,1682.6,982.1,1694.9,969.8z"/>
			<linearGradient id="SVGID_17_" gradientUnits="userSpaceOnUse" x1="1707.1794" y1="1145.0045" x2="1609.4159" y2="1242.7681">
				<stop  offset="0" style="stop-color:#F1F1F1"/>
				<stop  offset="0.4938" style="stop-color:#FFFFFF"/>
				<stop  offset="1" style="stop-color:#F1F1F1"/>
			</linearGradient>
			<path class="st16" d="M1527.3,1065.7L1527.3,1065.7c27.8-27.7,73.3-27.7,101.2,0l208.9,208.2h-202.3l-107.8-107.4
				C1499.5,1138.8,1499.5,1093.5,1527.3,1065.7z"/>
			<linearGradient id="SVGID_18_" gradientUnits="userSpaceOnUse" x1="1372.4714" y1="1199.2833" x2="1325.1381" y2="1246.6167">
				<stop  offset="0" style="stop-color:#EEEEEE"/>
				<stop  offset="1" style="stop-color:#D7D7D7"/>
			</linearGradient>
			<path class="st17" d="M1275.2,1154.2L1275.2,1154.2c12.3-12.3,32.4-12.3,44.7,0l120.2,119.8h-89.4l-75.5-75.2
				C1262.9,1186.5,1262.9,1166.4,1275.2,1154.2z"/>
			<linearGradient id="SVGID_19_" gradientUnits="userSpaceOnUse" x1="1735.1064" y1="379.6699" x2="1634.8295" y2="479.9468">
				<stop  offset="0" style="stop-color:#EEEEEE"/>
				<stop  offset="1" style="stop-color:#D7D7D7"/>
			</linearGradient>
			<path class="st18" d="M1406.7,154.2L1406.7,154.2c27.8-27.7,73.3-27.7,101.2,0L1911,556v201.7L1406.7,255
				C1378.9,227.3,1378.9,181.9,1406.7,154.2z"/>
		</g>
		<g>
			<linearGradient id="SVGID_20_" gradientUnits="userSpaceOnUse" x1="118.4703" y1="956.8177" x2="56.0009" y2="1019.287">
				<stop  offset="0" style="stop-color:#F1F1F1"/>
				<stop  offset="0.4938" style="stop-color:#FFFFFF"/>
				<stop  offset="1" style="stop-color:#F1F1F1"/>
			</linearGradient>
			<path class="st19" d="M206.8,1105.9L206.8,1105.9c-17.1,17-45.1,17-62.1,0L0,961.8V837.9L206.8,1044
				C223.8,1061,223.8,1088.9,206.8,1105.9z"/>
			<linearGradient id="SVGID_21_" gradientUnits="userSpaceOnUse" x1="286.177" y1="580.962" x2="241.5859" y2="625.5532">
				<stop  offset="0" style="stop-color:#EEEEEE"/>
				<stop  offset="1" style="stop-color:#D7D7D7"/>
			</linearGradient>
			<path class="st20" d="M545.9,888.6L545.9,888.6c-12.3,12.3-32.4,12.3-44.7,0L0,389v-89.1L545.9,844
				C558.1,856.2,558.1,876.3,545.9,888.6z"/>
			<linearGradient id="SVGID_22_" gradientUnits="userSpaceOnUse" x1="176.6151" y1="362.6877" x2="114.8423" y2="424.4605">
				<stop  offset="0" style="stop-color:#F1F1F1"/>
				<stop  offset="0.4938" style="stop-color:#FFFFFF"/>
				<stop  offset="1" style="stop-color:#F1F1F1"/>
			</linearGradient>
			<path class="st21" d="M321.4,569.8L321.4,569.8c-17.1,17-45.1,17-62.1,0L0,311.4V187.5l321.4,320.4
				C338.5,524.9,338.5,552.7,321.4,569.8z"/>
			<linearGradient id="SVGID_23_" gradientUnits="userSpaceOnUse" x1="410.1388" y1="294.7041" x2="307.5419" y2="397.301">
				<stop  offset="0" style="stop-color:#EEEEEE"/>
				<stop  offset="1" style="stop-color:#D7D7D7"/>
			</linearGradient>
			<path class="st22" d="M712,697.7L712,697.7c-27.8,27.7-73.3,27.7-101.2,0L0,88.8V0h113.2L712,596.9
				C739.8,624.6,739.8,670,712,697.7z"/>
			<linearGradient id="SVGID_24_" gradientUnits="userSpaceOnUse" x1="119.4145" y1="162.802" x2="75.1033" y2="207.1133">
				<stop  offset="0" style="stop-color:#F1F1F1"/>
				<stop  offset="0.4938" style="stop-color:#FFFFFF"/>
				<stop  offset="1" style="stop-color:#F1F1F1"/>
			</linearGradient>
			<path class="st23" d="M216,304.2L216,304.2c-12.3,12.3-32.4,12.3-44.7,0L0,133.4V44.2l216,215.3
				C228.3,271.8,228.3,291.9,216,304.2z"/>
			<linearGradient id="SVGID_25_" gradientUnits="userSpaceOnUse" x1="303.9293" y1="28.8232" x2="206.806" y2="125.9465">
				<stop  offset="0" style="stop-color:#F1F1F1"/>
				<stop  offset="0.4938" style="stop-color:#FFFFFF"/>
				<stop  offset="1" style="stop-color:#F1F1F1"/>
			</linearGradient>
			<path class="st24" d="M383.7,208.2L383.7,208.2c-27.8,27.7-73.3,27.7-101.2,0L73.6,0h202.3l107.8,107.4
				C411.5,135.1,411.5,180.5,383.7,208.2z"/>
			<linearGradient id="SVGID_26_" gradientUnits="userSpaceOnUse" x1="586.4044" y1="26.7773" x2="544.71" y2="68.4717">
				<stop  offset="0" style="stop-color:#F1F1F1"/>
				<stop  offset="0.4938" style="stop-color:#FFFFFF"/>
				<stop  offset="1" style="stop-color:#F1F1F1"/>
			</linearGradient>
			<path class="st25" d="M635.7,119.8L635.7,119.8c-12.3,12.3-32.4,12.3-44.7,0L470.9,0h89.4l75.5,75.2
				C648,87.5,648,107.5,635.7,119.8z"/>
			<linearGradient id="SVGID_27_" gradientUnits="userSpaceOnUse" x1="278.5503" y1="791.6098" x2="177.4406" y2="892.7195">
				<stop  offset="0" style="stop-color:#EEEEEE"/>
				<stop  offset="1" style="stop-color:#D7D7D7"/>
			</linearGradient>
			<path class="st26" d="M504.3,1119.8L504.3,1119.8c-27.8,27.7-73.3,27.7-101.2,0L0,717.9V516.3l504.3,502.7
				C532.1,1046.7,532.1,1092,504.3,1119.8z"/>
		</g>
	</g>
	<g>
		<g>
			<defs>
				<filter id="Adobe_OpacityMaskFilter" filterUnits="userSpaceOnUse" x="982.8" y="0" width="928.1" height="1274">
					<feColorMatrix  type="matrix" values="1 0 0 0 0  0 1 0 0 0  0 0 1 0 0  0 0 0 1 0"/>
				</filter>
			</defs>
			<mask maskUnits="userSpaceOnUse" x="982.8" y="0" width="928.1" height="1274" id="SVGID_28_">
				<g class="st27">
					
						<linearGradient id="SVGID_29_" gradientUnits="userSpaceOnUse" x1="-1.8227" y1="502.1155" x2="0.7252" y2="502.1155" gradientTransform="matrix(-364.2608 0 0 364.2608 1247.0184 -182264)">
						<stop  offset="0" style="stop-color:#FFFFFF"/>
						<stop  offset="0.1026" style="stop-color:#CFCFCF"/>
						<stop  offset="0.2346" style="stop-color:#999999"/>
						<stop  offset="0.368" style="stop-color:#6A6A6A"/>
						<stop  offset="0.4999" style="stop-color:#444444"/>
						<stop  offset="0.63" style="stop-color:#262626"/>
						<stop  offset="0.7579" style="stop-color:#111111"/>
						<stop  offset="0.8824" style="stop-color:#040404"/>
						<stop  offset="1" style="stop-color:#000000"/>
					</linearGradient>
					<rect x="982.8" y="0" class="st28" width="928.1" height="1274"/>
				</g>
			</mask>
			
				<linearGradient id="SVGID_30_" gradientUnits="userSpaceOnUse" x1="-1.8242" y1="502.1139" x2="0.7237" y2="502.1139" gradientTransform="matrix(-364.2609 0 0 364.2609 1246.4755 -182263.4688)">
				<stop  offset="0" style="stop-color:#CFD1D2"/>
				<stop  offset="0.2955" style="stop-color:#DFE1E1"/>
				<stop  offset="0.6566" style="stop-color:#ECEDED"/>
				<stop  offset="1" style="stop-color:#F0F1F1"/>
			</linearGradient>
			<rect x="982.8" y="0" class="st29" width="928.1" height="1274"/>
		</g>
		<g>
			<defs>
				<filter id="Adobe_OpacityMaskFilter_1_" filterUnits="userSpaceOnUse" x="0" y="0" width="928.1" height="1274">
					<feColorMatrix  type="matrix" values="1 0 0 0 0  0 1 0 0 0  0 0 1 0 0  0 0 0 1 0"/>
				</filter>
			</defs>
			<mask maskUnits="userSpaceOnUse" x="0" y="0" width="928.1" height="1274" id="SVGID_31_">
				<g class="st30">
					
						<linearGradient id="SVGID_32_" gradientUnits="userSpaceOnUse" x1="1.3572" y1="502.1155" x2="3.9051" y2="502.1155" gradientTransform="matrix(364.2608 0 0 364.2608 -494.3703 -182264)">
						<stop  offset="0" style="stop-color:#FFFFFF"/>
						<stop  offset="0.1026" style="stop-color:#CFCFCF"/>
						<stop  offset="0.2346" style="stop-color:#999999"/>
						<stop  offset="0.368" style="stop-color:#6A6A6A"/>
						<stop  offset="0.4999" style="stop-color:#444444"/>
						<stop  offset="0.63" style="stop-color:#262626"/>
						<stop  offset="0.7579" style="stop-color:#111111"/>
						<stop  offset="0.8824" style="stop-color:#040404"/>
						<stop  offset="1" style="stop-color:#000000"/>
					</linearGradient>
					<rect y="0" class="st31" width="928.1" height="1274"/>
				</g>
			</mask>
			
				<linearGradient id="SVGID_33_" gradientUnits="userSpaceOnUse" x1="1.3557" y1="502.1139" x2="3.9036" y2="502.1139" gradientTransform="matrix(364.2609 0 0 364.2609 -493.8273 -182263.4688)">
				<stop  offset="0" style="stop-color:#CFD1D2"/>
				<stop  offset="0.2955" style="stop-color:#DFE1E1"/>
				<stop  offset="0.6566" style="stop-color:#ECEDED"/>
				<stop  offset="1" style="stop-color:#F0F1F1"/>
			</linearGradient>
			<rect y="0" class="st32" width="928.1" height="1274"/>
		</g>
	</g>
</g>
</svg>
